<svg width="13" height="8" viewBox="0 0 13 8" fill="none" xmlns="http://www.w3.org/2000/svg">
<path fill-rule="evenodd" clip-rule="evenodd" d="M12.7886 0.704917C12.5066 0.431694 12.0494 0.431694 11.7674 0.704917L6.49993 5.80865L1.23266 0.70512C0.950673 0.431897 0.493479 0.431897 0.211491 0.70512C-0.0704969 0.978342 -0.0704971 1.42132 0.211491 1.69455L5.94221 7.24713C5.95631 7.26354 5.97131 7.27947 5.9872 7.29487C6.1202 7.42374 6.29219 7.49183 6.46638 7.49913C6.66295 7.50855 6.86274 7.44053 7.01287 7.29507C7.02952 7.27894 7.04518 7.26221 7.05987 7.24497L12.7886 1.69434C13.0706 1.42112 13.0706 0.978139 12.7886 0.704917Z" fill="white"/>
</svg>
