<svg width="37" height="26" viewBox="0 0 37 26" fill="none" xmlns="http://www.w3.org/2000/svg">
<path d="M32.3755 3.28272C28.2364 0.269328 24.3796 0.144054 23.6428 0.128418L23.1725 0.58128C28.456 2.0803 31.0115 4.4226 31.0115 4.4226C26.4764 2.20036 22.2027 1.41887 18.5002 1.37187C14.7979 1.41925 10.5241 2.20036 5.98904 4.4226C5.98904 4.4226 8.54459 2.0803 13.8282 0.58128L13.3578 0.128418C12.6209 0.144054 8.76408 0.268949 4.62506 3.28272C4.62506 3.28272 0 11.1528 0 20.8186C0.156721 20.6312 2.86909 24.9722 9.86159 25.1284C9.86159 25.1284 11.0375 23.8011 11.884 22.6299C7.80768 21.4588 6.27129 19.1166 6.27129 19.1166C10.5091 21.7753 14.4674 22.7982 18.5002 22.6653C22.5331 22.798 26.4913 21.7753 30.7292 19.1166C30.7292 19.1166 29.1928 21.4588 25.116 22.6299C25.9626 23.8011 27.1385 25.1284 27.1385 25.1284C34.1309 24.9722 36.8433 20.6312 37 20.8186C37.0005 11.1528 32.3755 3.28272 32.3755 3.28272ZM12.8087 17.7893C11.0213 17.7893 9.57897 16.2902 9.57897 14.4475C9.57897 12.6049 11.0213 11.1059 12.8087 11.1059V11.1215C14.5803 11.1215 16.0384 12.6206 16.0384 14.4632C16.0387 16.2902 14.5958 17.7893 12.8087 17.7893ZM24.1911 17.7893C22.4037 17.7893 20.9614 16.2902 20.9614 14.4632C20.9614 12.6206 22.4194 11.1215 24.1911 11.1215V11.1059C25.9784 11.1059 27.4207 12.605 27.4207 14.4475C27.4207 16.2901 25.9784 17.7893 24.1911 17.7893Z" fill="white"/>
</svg>
