<svg width="30" height="26" viewBox="0 0 30 26" fill="none" xmlns="http://www.w3.org/2000/svg">
<path d="M29.9414 3.53512C29.2291 4.60059 28.3619 5.55361 27.3685 6.36265C27.2396 6.46526 27.1356 6.59573 27.0643 6.74428C26.9929 6.89284 26.9561 7.05563 26.9565 7.22047V7.32155C26.9451 9.46854 26.5515 11.5963 25.7941 13.605C25.0139 15.7103 23.8552 17.6547 22.3753 19.342C20.3956 21.6017 17.8454 23.2869 14.992 24.2212C13.1118 24.8321 11.1461 25.1383 9.16939 25.1282C6.03885 25.1249 2.96472 24.2937 0.258117 22.7186C0.161201 22.6635 0.0849907 22.5781 0.0411379 22.4754C-0.00271481 22.3728 -0.0117962 22.2586 0.0152814 22.1504C0.0427233 22.0433 0.105202 21.9485 0.192741 21.8812C0.280281 21.8138 0.387834 21.7778 0.498225 21.7788H1.24583C3.62534 21.7785 5.95042 21.0659 7.92246 19.7326C6.74692 19.5402 5.64695 19.0276 4.74311 18.2508C3.83927 17.474 3.16644 16.4631 2.79835 15.3288C2.78029 15.2729 2.77707 15.2132 2.789 15.1557C2.80094 15.0981 2.82762 15.0447 2.86643 15.0006C2.90524 14.9565 2.95484 14.9233 3.01035 14.9042C3.06587 14.8851 3.12539 14.8808 3.18307 14.8917C3.54285 14.9602 3.90823 14.9949 4.27446 14.9955H4.41089C3.27149 14.4713 2.3082 13.6278 1.63754 12.567C0.966879 11.5061 0.617589 10.2735 0.631921 9.01807C0.632699 8.95917 0.648678 8.90148 0.678305 8.8506C0.707932 8.79971 0.7502 8.75736 0.801003 8.72767C0.851806 8.69797 0.909417 8.68194 0.968238 8.68113C1.02706 8.68031 1.08509 8.69474 1.13669 8.72302C1.59899 8.9815 2.09484 9.17457 2.61008 9.29672C1.58977 8.28674 0.933069 6.96627 0.74296 5.54238C0.552851 4.11848 0.84008 2.67167 1.55961 1.42881C1.58721 1.38301 1.62526 1.34441 1.67063 1.31616C1.71599 1.28791 1.7674 1.27082 1.82063 1.26629C1.87387 1.26176 1.92742 1.26992 1.9769 1.29009C2.02638 1.31027 2.07038 1.34189 2.10531 1.38237C3.53432 3.15109 5.30367 4.61434 7.30832 5.68526C9.31297 6.75619 11.5121 7.41296 13.7751 7.6166H13.7996C13.8332 7.6155 13.8661 7.60768 13.8966 7.5936C13.9271 7.57952 13.9544 7.55947 13.977 7.53464C13.9987 7.50979 14.015 7.48068 14.0249 7.44916C14.0348 7.41765 14.038 7.38442 14.0343 7.3516C13.9498 6.55823 14.0015 5.75623 14.1871 4.9803C14.3497 4.30101 14.6265 3.65436 15.0056 3.06796C15.8012 1.81681 17.0133 0.887794 18.4272 0.445323C19.0904 0.237122 19.7812 0.130286 20.4763 0.128421C22.0525 0.126865 23.575 0.702026 24.7573 1.74571C24.9079 1.87976 25.1015 1.95535 25.303 1.9588C25.3693 1.9577 25.4353 1.94853 25.4994 1.93148C26.6109 1.64993 27.676 1.20919 28.6618 0.622897C28.7211 0.588573 28.7894 0.572945 28.8577 0.578047C28.9261 0.58315 28.9913 0.608747 29.0449 0.651504C29.0985 0.69426 29.138 0.752191 29.1582 0.817747C29.1785 0.883303 29.1785 0.953443 29.1583 1.01902C28.8276 2.053 28.2421 2.98691 27.4558 3.73455C28.165 3.56494 28.8573 3.33084 29.524 3.03518C29.5912 3.00519 29.6663 2.99796 29.738 3.01459C29.8097 3.03122 29.874 3.0708 29.9212 3.12732C29.9684 3.18385 29.9959 3.25424 29.9996 3.32783C30.0032 3.40142 29.9828 3.47419 29.9414 3.53512Z" fill="#000"/>
</svg>
