<?xml version="1.0" standalone="no"?>
<!DOCTYPE svg PUBLIC "-//W3C//DTD SVG 20010904//EN"
 "http://www.w3.org/TR/2001/REC-SVG-20010904/DTD/svg10.dtd">
<svg version="1.0" xmlns="http://www.w3.org/2000/svg"
 width="512.000000pt" height="512.000000pt" viewBox="0 0 512.000000 512.000000"
 preserveAspectRatio="xMidYMid meet">
<metadata>
Created by potrace 1.16, written by Peter Selinger 2001-2019
</metadata>
<g transform="translate(0.000000,512.000000) scale(0.100000,-0.100000)"
fill="#000000" stroke="none">
<path d="M2240 5105 c-300 -39 -543 -112 -815 -245 -262 -128 -491 -296 -705
-516 -375 -386 -600 -833 -695 -1384 -26 -149 -32 -541 -11 -711 75 -592 332
-1109 757 -1524 206 -201 409 -345 654 -464 375 -183 715 -261 1135 -261 288
1 499 31 748 106 800 243 1448 882 1696 1675 83 266 116 485 116 779 0 206
-14 355 -50 530 -137 659 -543 1250 -1115 1623 -323 210 -685 342 -1073 391
-149 19 -501 20 -642 1z m1673 -1027 c3 -7 176 -236 385 -508 313 -409 378
-498 368 -511 -63 -87 -2102 -2559 -2109 -2556 -5 1 -483 580 -1062 1287
l-1054 1284 32 43 c18 23 192 252 387 507 l355 465 1346 0 c1069 1 1348 -2
1352 -11z"/>
<path d="M2555 3597 c-3 -6 -4 -161 -3 -342 l3 -330 33 -3 32 -3 0 210 0 211
34 0 c47 0 196 -45 265 -80 89 -44 204 -141 265 -223 86 -113 131 -222 160
-384 l6 -33 -215 0 -215 0 0 -60 0 -60 215 0 215 0 -4 -22 c-31 -152 -43 -190
-81 -266 -77 -152 -186 -265 -332 -344 -75 -40 -226 -88 -279 -88 l-34 0 0
211 0 210 -32 -3 -33 -3 0 -340 0 -340 33 -3 32 -3 0 70 0 70 38 6 c96 15 213
48 278 79 288 137 484 402 522 704 l7 57 73 3 72 3 0 59 0 59 -72 3 -73 3 -7
57 c-12 98 -37 180 -88 283 -132 272 -385 450 -712 500 l-38 6 0 69 0 70 -30
0 c-17 0 -33 -6 -35 -13z"/>
<path d="M2557 2693 c-4 -3 -7 -64 -7 -135 0 -146 6 -156 68 -122 100 54 106
179 13 241 -34 23 -62 29 -74 16z"/>
</g>
</svg>
